<svg xmlns="http://www.w3.org/2000/svg" data-name="Layer 1" viewBox="0 0 263 263"><defs><linearGradient id="a" x1="65.74" x2="197.26" y1="245.4" y2="17.6" gradientUnits="userSpaceOnUse"><stop offset="0" stop-color="#1b1464"/><stop offset=".44" stop-color="#0071bc"/><stop offset="1" stop-color="#29abe2"/></linearGradient></defs><path d="M131.5 0C58.87 0 0 58.87 0 131.5S58.87 263 131.5 263 263 204.13 263 131.5 204.13 0 131.5 0Zm42.61 133.83c-1.67-.87-3.54-1.4-5.53-1.52-4.6-9.04-6.95-18.95-8.79-29.4 3.4-2.4 5.8-6.1 6.49-10.39 12.21-3.72 24.54-8.44 36.99-14.82 1 .93 2.16 1.72 3.48 2.28l7.21 3.07c-4.71 20.76-20.5 35.89-39.86 50.78Zm-19.85 14.69c-9.78 7.16-19.79 14.68-29.09 23.05-1.83-.73-3.85-1.02-5.93-.75l-10.38 1.34c-10.76-14.14-20.21-31.8-28.32-52.83 2.46-2.35 4.21-5.43 4.89-8.9 9.57-2.26 19.31-4.13 29.21-6.03 7.83-1.5 15.71-3.01 23.65-4.73 1.93 2.49 4.59 4.39 7.66 5.37 2.01 11.43 4.7 22.88 10.2 33.63a13.63 13.63 0 0 0-2.14 7.34c0 .86.09 1.7.24 2.52ZM131.5 20c28.46 0 55.29 10.6 75.99 29.91-1.09 1.07-2 2.36-2.63 3.85l-3.96 9.32c-13 7.04-25.94 12.1-38.79 16.03a15.7 15.7 0 0 0-7.1-4.26c-4.05-19.37-11.47-39.01-32.41-54.5 2.95-.23 5.92-.35 8.91-.35Zm-29.71 3.98c26.88 13.63 35.09 32.6 39.47 53.46a15.788 15.788 0 0 0-5.73 8.5c-7.89 1.71-15.73 3.22-23.51 4.71-10.1 1.94-20.06 3.85-29.85 6.15a16.77 16.77 0 0 0-11.29-6.34c-4.01-13.8-7.55-28.71-10.64-44.71 12.26-10.22 26.38-17.59 41.55-21.76ZM48.28 57.3c2.76 13.23 5.86 25.73 9.28 37.47a16.799 16.799 0 0 0-5.4 10.96c-10.82 4.1-21.4 9.29-31.75 16.21 2.03-24.07 11.71-46.57 27.87-64.64Zm4.38 153.04c-19.21-19.21-30.54-44.18-32.38-71.02 11.72-9.1 23.97-15.52 36.65-20.35a16.74 16.74 0 0 0 10.4 4.95c8.69 22.64 18.91 41.69 30.61 57-.43 1.51-.57 3.13-.36 4.79L99.03 197c.16 1.23.5 2.39.99 3.46-6.21 9.74-10.99 20.64-13.58 33.09-12.44-5.5-23.88-13.31-33.78-23.21ZM131.5 243c-10.9 0-21.56-1.56-31.73-4.56 2.16-11.7 6.54-21.9 12.45-31.05.08 0 .16 0 .25-.02l10.04-1.29c17.92 14.04 38.46 22.02 61.45 23.87-15.95 8.53-33.85 13.05-52.45 13.05Zm78.84-32.66c-2.05 2.05-4.16 4-6.34 5.87v-.2c-27.12 1.99-50.32-4.21-70.2-18.87.4-1.48.53-3.05.33-4.66l-1.17-9.09c9.47-8.72 20.03-16.6 30.58-24.32 1.33.43 2.75.67 4.22.67 1.37 0 2.69-.21 3.94-.58 13.19 12.15 32.06 20.97 57.17 26.75a111.816 111.816 0 0 1-18.53 24.42Zm-29.18-61.35c.21-.96.34-1.96.34-2.99 0-.07 0-.14-.01-.21 22.06-16.88 41.8-35.51 46.78-62.24 1.03-.64 1.98-1.44 2.78-2.38C238.86 96.58 243 113.72 243 131.5c0 14.44-2.73 28.45-7.94 41.46-26.34-5.63-43.02-13.87-53.9-23.97Z" style="fill:url(#a);stroke-width:0"/></svg>
